<?xml version="1.0" encoding="utf-8"?>
<!-- Generator: Adobe Illustrator 24.0.1, SVG Export Plug-In . SVG Version: 6.00 Build 0)  -->
<svg version="1.1" id="Laag_1" xmlns="http://www.w3.org/2000/svg" xmlns:xlink="http://www.w3.org/1999/xlink" x="0px" y="0px"
	 viewBox="0 0 291 96" style="enable-background:new 0 0 291 96;" xml:space="preserve">
<style type="text/css">
	.st0{fill-rule:evenodd;clip-rule:evenodd;fill:#FFFFFF;}
	.st1{fill-rule:evenodd;clip-rule:evenodd;fill:none;}
	.st2{fill:#E30613;}
	.st3{font-family:'Papyrus-Regular';}
	.st4{font-size:118px;}
</style>
<g>
	<path class="st0" d="M52.2,83.3h1.9v-1c0-0.7,0.1-1.3,0.3-1.8c0.2-0.5,0.4-0.8,0.7-1.1c0.3-0.2,0.6-0.4,1-0.5
		c0.4-0.1,0.8-0.1,1.2-0.1c0.8,0,1.4,0.1,1.8,0.2v2c-0.2,0-0.3-0.1-0.5-0.1s-0.4,0-0.7,0c-0.3,0-0.6,0.1-0.9,0.2
		c-0.2,0.2-0.4,0.5-0.4,1v1.2h2.2v1.9h-2.2v9.8h-2.6v-9.8h-1.9V83.3z M65.4,93.4c0.6,0,1.1-0.1,1.5-0.4c0.4-0.2,0.8-0.6,1-1
		c0.3-0.4,0.5-0.8,0.6-1.3s0.2-1,0.2-1.5c0-0.5-0.1-1-0.2-1.5s-0.3-0.9-0.6-1.3c-0.3-0.4-0.6-0.7-1-0.9s-0.9-0.4-1.5-0.4
		c-0.6,0-1.1,0.1-1.5,0.4c-0.4,0.2-0.8,0.6-1,0.9s-0.5,0.8-0.6,1.3s-0.2,1-0.2,1.5c0,0.5,0.1,1,0.2,1.5s0.3,0.9,0.6,1.3s0.6,0.7,1,1
		C64.4,93.2,64.9,93.4,65.4,93.4z M65.4,95.4c-0.9,0-1.8-0.2-2.5-0.5c-0.7-0.3-1.4-0.7-1.9-1.3c-0.5-0.5-0.9-1.2-1.2-2
		c-0.3-0.8-0.4-1.6-0.4-2.5c0-0.9,0.1-1.7,0.4-2.5c0.3-0.8,0.7-1.4,1.2-2c0.5-0.5,1.1-1,1.9-1.3c0.7-0.3,1.6-0.5,2.5-0.5
		c0.9,0,1.8,0.2,2.5,0.5c0.7,0.3,1.4,0.7,1.9,1.3s0.9,1.2,1.2,2c0.3,0.8,0.4,1.6,0.4,2.5c0,0.9-0.1,1.7-0.4,2.5
		c-0.3,0.8-0.7,1.4-1.2,2s-1.1,1-1.9,1.3C67.2,95.2,66.4,95.4,65.4,95.4z M73.1,83.3h2.4v2.3h0c0.1-0.3,0.2-0.6,0.4-0.9
		c0.2-0.3,0.5-0.6,0.8-0.8c0.3-0.2,0.7-0.5,1-0.6S78.6,83,79,83c0.3,0,0.5,0,0.6,0c0.1,0,0.2,0,0.4,0v2.5c-0.2,0-0.4-0.1-0.6-0.1
		c-0.2,0-0.4,0-0.6,0c-0.4,0-0.9,0.1-1.2,0.3c-0.4,0.2-0.7,0.4-1,0.8s-0.5,0.8-0.7,1.3c-0.2,0.5-0.2,1.1-0.2,1.7v5.6h-2.6V83.3z
		 M91,95.1h-2.5v-1.6h0c-0.3,0.6-0.8,1.1-1.4,1.4s-1.3,0.5-1.9,0.5c-1.5,0-2.7-0.4-3.3-1.1c-0.7-0.8-1-1.9-1-3.5v-7.4h2.6v7.2
		c0,1,0.2,1.8,0.6,2.2s0.9,0.6,1.7,0.6c0.5,0,1-0.1,1.4-0.2c0.4-0.2,0.7-0.4,0.9-0.7c0.2-0.3,0.4-0.6,0.5-1c0.1-0.4,0.1-0.8,0.1-1.3
		v-6.8H91V95.1z M93.4,83.3h2.5V85h0.1c0.2-0.3,0.4-0.6,0.6-0.8c0.2-0.2,0.5-0.4,0.8-0.6c0.3-0.2,0.6-0.3,1-0.4S99,83,99.5,83
		c0.7,0,1.4,0.2,2,0.5c0.6,0.3,1,0.8,1.3,1.5c0.4-0.6,0.9-1.1,1.5-1.4c0.6-0.3,1.3-0.5,2.2-0.5c1.2,0,2.2,0.3,2.9,0.9
		c0.7,0.6,1,1.6,1,3v8.1h-2.6v-6.9c0-0.5,0-0.9,0-1.3s-0.1-0.7-0.3-1c-0.1-0.3-0.4-0.5-0.6-0.6c-0.3-0.2-0.7-0.2-1.2-0.2
		c-0.9,0-1.5,0.3-1.9,0.8s-0.6,1.3-0.6,2.3v6.9h-2.6v-7.5c0-0.8-0.1-1.4-0.4-1.9s-0.8-0.6-1.6-0.6c-0.3,0-0.7,0.1-1,0.2
		c-0.3,0.1-0.6,0.3-0.8,0.6c-0.2,0.3-0.4,0.6-0.6,1c-0.1,0.4-0.2,0.8-0.2,1.3v7h-2.6V83.3z M144.7,90.9c0.1,0.8,0.4,1.3,0.9,1.6
		c0.5,0.3,1.1,0.5,1.8,0.5c0.2,0,0.5,0,0.8-0.1c0.3,0,0.6-0.1,0.9-0.2s0.5-0.3,0.7-0.5c0.2-0.2,0.3-0.5,0.2-0.8
		c0-0.3-0.1-0.6-0.4-0.8c-0.2-0.2-0.5-0.4-0.9-0.5c-0.4-0.1-0.8-0.2-1.2-0.3c-0.5-0.1-0.9-0.2-1.4-0.3c-0.5-0.1-0.9-0.2-1.4-0.4
		c-0.4-0.2-0.8-0.4-1.2-0.6s-0.6-0.6-0.9-1c-0.2-0.4-0.3-0.9-0.3-1.5c0-0.6,0.2-1.2,0.5-1.6c0.3-0.4,0.7-0.8,1.2-1
		c0.5-0.3,1-0.5,1.6-0.6c0.6-0.1,1.1-0.2,1.7-0.2c0.6,0,1.2,0.1,1.7,0.2c0.6,0.1,1.1,0.3,1.5,0.6c0.4,0.3,0.8,0.7,1.1,1.1
		c0.3,0.5,0.5,1,0.6,1.7h-2.7c-0.1-0.6-0.4-1-0.9-1.2c-0.4-0.2-1-0.3-1.5-0.3c-0.2,0-0.4,0-0.6,0c-0.2,0-0.5,0.1-0.7,0.2
		c-0.2,0.1-0.4,0.2-0.6,0.4c-0.2,0.2-0.2,0.4-0.2,0.6c0,0.3,0.1,0.6,0.3,0.8c0.2,0.2,0.5,0.4,0.9,0.5c0.4,0.1,0.8,0.2,1.2,0.3
		c0.5,0.1,0.9,0.2,1.4,0.3c0.5,0.1,0.9,0.2,1.4,0.4c0.5,0.2,0.9,0.4,1.2,0.6c0.4,0.3,0.6,0.6,0.9,1s0.3,0.9,0.3,1.5
		c0,0.7-0.2,1.3-0.5,1.8c-0.3,0.5-0.7,0.9-1.2,1.2c-0.5,0.3-1.1,0.5-1.7,0.7c-0.6,0.1-1.2,0.2-1.8,0.2c-0.7,0-1.4-0.1-2.1-0.2
		c-0.6-0.2-1.2-0.4-1.6-0.8c-0.5-0.3-0.8-0.8-1.1-1.3s-0.4-1.1-0.4-1.8H144.7z M160,95c-0.9,0-1.8-0.2-2.5-0.5s-1.4-0.7-1.9-1.3
		c-0.5-0.5-0.9-1.2-1.2-2c-0.3-0.8-0.4-1.6-0.4-2.5c0-0.9,0.1-1.7,0.4-2.5c0.3-0.8,0.7-1.4,1.2-2c0.5-0.5,1.1-1,1.9-1.3
		c0.7-0.3,1.6-0.5,2.5-0.5c0.9,0,1.8,0.2,2.5,0.5c0.7,0.3,1.4,0.7,1.9,1.3c0.5,0.5,0.9,1.2,1.2,2c0.3,0.8,0.4,1.6,0.4,2.5
		c0,0.9-0.1,1.7-0.4,2.5c-0.3,0.8-0.7,1.4-1.2,2c-0.5,0.5-1.1,1-1.9,1.3S160.9,95,160,95z M160,93c0.6,0,1.1-0.1,1.5-0.4
		c0.4-0.2,0.8-0.6,1-1s0.5-0.8,0.6-1.3c0.1-0.5,0.2-1,0.2-1.5c0-0.5-0.1-1-0.2-1.5c-0.1-0.5-0.3-0.9-0.6-1.3s-0.6-0.7-1-0.9
		c-0.4-0.2-0.9-0.4-1.5-0.4c-0.6,0-1.1,0.1-1.5,0.4c-0.4,0.2-0.8,0.6-1,0.9c-0.3,0.4-0.5,0.8-0.6,1.3s-0.2,1-0.2,1.5
		c0,0.5,0.1,1,0.2,1.5c0.1,0.5,0.3,0.9,0.6,1.3c0.3,0.4,0.6,0.7,1,1C158.9,92.8,159.4,93,160,93z M166.9,82.9h1.9v-1
		c0-0.7,0.1-1.3,0.3-1.8c0.2-0.5,0.4-0.8,0.7-1.1c0.3-0.2,0.6-0.4,1-0.5c0.4-0.1,0.8-0.1,1.2-0.1c0.8,0,1.4,0.1,1.8,0.2v2
		c-0.2,0-0.3-0.1-0.5-0.1c-0.2,0-0.4,0-0.7,0c-0.3,0-0.6,0.1-0.9,0.2s-0.4,0.5-0.4,1v1.2h2.2v1.9h-2.2v9.8h-2.6v-9.8h-1.9V82.9z
		 M174,82.9h2v-3.5h2.6v3.5h2.3v1.9h-2.3v6.3c0,0.3,0,0.5,0,0.7c0,0.2,0.1,0.4,0.2,0.5c0.1,0.1,0.2,0.2,0.4,0.3
		c0.2,0.1,0.4,0.1,0.7,0.1c0.2,0,0.4,0,0.5,0c0.2,0,0.4,0,0.5-0.1v2c-0.3,0-0.6,0.1-0.8,0.1c-0.3,0-0.6,0-0.8,0
		c-0.7,0-1.2-0.1-1.6-0.2c-0.4-0.1-0.7-0.3-1-0.6c-0.2-0.2-0.4-0.6-0.5-0.9c-0.1-0.4-0.1-0.8-0.1-1.3v-6.9h-2V82.9z M181.7,82.9h2.7
		l2.3,8.8h0l2.2-8.8h2.6l2.1,8.8h0l2.4-8.8h2.6l-3.7,11.7h-2.7l-2.2-8.7h0l-2.2,8.7h-2.7L181.7,82.9z M210.3,92.1
		c0,0.3,0,0.5,0.1,0.7s0.2,0.2,0.5,0.2h0.3c0.1,0,0.2,0,0.4,0v1.8c-0.1,0-0.2,0.1-0.4,0.1s-0.3,0.1-0.4,0.1c-0.2,0-0.3,0.1-0.5,0.1
		s-0.3,0-0.4,0c-0.5,0-1-0.1-1.3-0.3c-0.3-0.2-0.6-0.6-0.7-1.1c-0.5,0.5-1.1,0.9-1.9,1.1c-0.7,0.2-1.5,0.3-2.2,0.3
		c-0.5,0-1-0.1-1.5-0.2c-0.5-0.1-0.9-0.4-1.3-0.6c-0.4-0.3-0.7-0.6-0.9-1.1c-0.2-0.4-0.3-0.9-0.3-1.5c0-0.7,0.1-1.3,0.4-1.8
		c0.3-0.5,0.6-0.8,1-1.1c0.4-0.3,0.9-0.4,1.5-0.6c0.5-0.1,1.1-0.2,1.6-0.3c0.5-0.1,0.9-0.2,1.3-0.2c0.4,0,0.8-0.1,1.1-0.2
		c0.3-0.1,0.6-0.2,0.8-0.4c0.2-0.2,0.3-0.5,0.3-0.9c0-0.3-0.1-0.6-0.2-0.8c-0.2-0.2-0.4-0.4-0.6-0.5c-0.2-0.1-0.5-0.2-0.8-0.2
		c-0.3,0-0.6-0.1-0.8-0.1c-0.7,0-1.3,0.2-1.8,0.5s-0.7,0.8-0.8,1.4h-2.6c0-0.8,0.2-1.4,0.5-1.9c0.3-0.5,0.7-0.9,1.2-1.2
		c0.5-0.3,1-0.5,1.7-0.6c0.6-0.1,1.3-0.2,1.9-0.2c0.6,0,1.1,0.1,1.7,0.2c0.6,0.1,1.1,0.3,1.5,0.6c0.4,0.3,0.8,0.6,1.1,1.1
		c0.3,0.4,0.4,1,0.4,1.6V92.1z M207.7,88.8c-0.4,0.3-0.9,0.4-1.5,0.5c-0.6,0.1-1.2,0.1-1.7,0.2c-0.3,0-0.5,0.1-0.8,0.2
		c-0.3,0.1-0.5,0.2-0.7,0.3c-0.2,0.1-0.4,0.3-0.5,0.6s-0.2,0.5-0.2,0.9c0,0.3,0.1,0.5,0.2,0.7c0.2,0.2,0.4,0.4,0.6,0.5
		c0.2,0.1,0.5,0.2,0.8,0.2c0.3,0,0.5,0.1,0.8,0.1c0.3,0,0.6,0,0.9-0.1s0.6-0.2,0.9-0.4c0.3-0.2,0.5-0.4,0.7-0.7
		c0.2-0.3,0.3-0.6,0.3-1V88.8z M213.1,82.9h2.4v2.3h0c0.1-0.3,0.2-0.6,0.4-0.9c0.2-0.3,0.5-0.6,0.8-0.8c0.3-0.2,0.7-0.5,1-0.6
		c0.4-0.2,0.8-0.2,1.2-0.2c0.3,0,0.5,0,0.6,0c0.1,0,0.2,0,0.4,0v2.5c-0.2,0-0.4-0.1-0.6-0.1s-0.4,0-0.6,0c-0.4,0-0.9,0.1-1.2,0.3
		c-0.4,0.2-0.7,0.4-1,0.8c-0.3,0.3-0.5,0.8-0.7,1.3s-0.2,1.1-0.2,1.7v5.6h-2.6V82.9z M222.7,89.5c0,0.5,0.1,0.9,0.2,1.3
		s0.3,0.8,0.6,1.1c0.3,0.3,0.6,0.6,1,0.8c0.4,0.2,0.9,0.3,1.4,0.3c0.8,0,1.4-0.2,1.8-0.5c0.5-0.3,0.8-0.8,1-1.5h2.5
		c-0.1,0.6-0.4,1.2-0.7,1.7c-0.3,0.5-0.7,0.9-1.2,1.3c-0.5,0.3-1,0.6-1.6,0.8c-0.6,0.2-1.2,0.3-1.8,0.3c-0.9,0-1.7-0.2-2.5-0.5
		c-0.7-0.3-1.3-0.7-1.8-1.3c-0.5-0.5-0.9-1.2-1.1-2c-0.2-0.8-0.4-1.6-0.4-2.5c0-0.8,0.1-1.6,0.4-2.4c0.3-0.7,0.6-1.4,1.1-2
		c0.5-0.6,1.1-1,1.8-1.4c0.7-0.3,1.5-0.5,2.4-0.5c0.9,0,1.8,0.2,2.5,0.6c0.7,0.4,1.3,0.9,1.8,1.5c0.5,0.6,0.8,1.4,1.1,2.2
		c0.2,0.8,0.3,1.7,0.2,2.6H222.7z M228.8,87.8c0-0.4-0.1-0.8-0.3-1.2s-0.3-0.7-0.6-1c-0.2-0.3-0.6-0.5-0.9-0.7
		c-0.4-0.2-0.8-0.3-1.2-0.3c-0.5,0-0.9,0.1-1.2,0.2c-0.4,0.2-0.7,0.4-1,0.7c-0.3,0.3-0.5,0.6-0.6,1s-0.2,0.8-0.3,1.2H228.8z"/>
	<path class="st0" d="M285,83.9h-0.9v-5.5h2.1c0.7,0,1.2,0.1,1.5,0.4c0.3,0.2,0.5,0.7,0.5,1.2c0,0.5-0.1,0.9-0.4,1.1
		c-0.3,0.2-0.6,0.4-1,0.4l1.6,2.4h-1l-1.5-2.4H285V83.9z M286,80.7c0.2,0,0.3,0,0.5,0c0.2,0,0.3-0.1,0.4-0.1
		c0.1-0.1,0.2-0.1,0.3-0.3c0.1-0.1,0.1-0.3,0.1-0.5c0-0.2,0-0.3-0.1-0.4c-0.1-0.1-0.2-0.2-0.3-0.2s-0.2-0.1-0.4-0.1s-0.3,0-0.4,0
		H285v1.6H286z M291,81c0,0.7-0.1,1.4-0.4,2s-0.6,1.1-1.1,1.6s-1,0.8-1.6,1c-0.6,0.2-1.2,0.4-1.9,0.4c-0.7,0-1.4-0.1-2-0.4
		c-0.6-0.3-1.1-0.6-1.6-1c-0.4-0.4-0.8-1-1-1.6c-0.2-0.6-0.4-1.3-0.4-2c0-0.7,0.1-1.4,0.4-2s0.6-1.1,1.1-1.6s1-0.8,1.6-1
		c0.6-0.2,1.2-0.4,1.9-0.4c0.7,0,1.3,0.1,1.9,0.4c0.6,0.2,1.1,0.6,1.6,1s0.8,1,1.1,1.6S291,80.3,291,81z M289.9,81
		c0-0.6-0.1-1.2-0.3-1.7c-0.2-0.5-0.5-0.9-0.8-1.3c-0.4-0.4-0.8-0.6-1.2-0.8c-0.5-0.2-1-0.3-1.5-0.3c-0.6,0-1.1,0.1-1.5,0.3
		c-0.5,0.2-0.9,0.5-1.2,0.8c-0.4,0.4-0.6,0.8-0.8,1.3c-0.2,0.5-0.3,1.1-0.3,1.7c0,0.6,0.1,1.1,0.3,1.6c0.2,0.5,0.4,0.9,0.8,1.3
		c0.3,0.4,0.8,0.7,1.2,0.9s1,0.3,1.6,0.3c0.5,0,1.1-0.1,1.5-0.3c0.5-0.2,0.9-0.5,1.2-0.8c0.4-0.4,0.6-0.8,0.8-1.3
		C289.8,82.2,289.9,81.6,289.9,81z M55.6,46.8c0,4.7-0.6,9-1.7,12.9c-1.2,3.9-2.8,7.3-5,10.2c-2.2,2.9-4.9,5.1-8.2,6.7
		c-3.3,1.6-7,2.4-11.3,2.4c-3.2,0-6.1-0.8-8.7-2.4c-2.6-1.6-4.5-3.7-6-6.2V96h-4.5c-1.3,0-2.6-0.2-3.8-0.7c-1.2-0.5-2.3-1.1-3.2-2
		c-0.9-0.9-1.7-1.9-2.3-3.1C0.3,89,0,87.6,0,86V50.8c0-4.8,0.6-9.2,1.7-13.3s2.9-7.5,5.2-10.4s5.4-5.1,9.1-6.7
		c3.7-1.6,8.1-2.4,13.2-2.4c3.9,0,7.4,0.8,10.7,2.4c3.2,1.6,6,3.8,8.4,6.4c2.3,2.7,4.2,5.7,5.4,9.2S55.6,43.1,55.6,46.8z M40.7,50.6
		c0-6.9-1.1-11.9-3.4-15C35,32.5,31.5,31,26.9,31c-4,0-7.1,1.6-9.2,4.7s-3.2,7.2-3.2,12.2c0,5.8,1.3,10.3,3.9,13.5s6.1,4.7,10.4,4.7
		c3.5,0,6.4-1.4,8.6-4.3C39.6,59,40.7,55.3,40.7,50.6z M107,77.7c-3,0-5.4-0.8-7.2-2.5c-1.8-1.7-2.6-4.1-2.6-7.2V44.2
		c0-2.4-0.3-4.4-0.9-6.1c-0.6-1.7-1.4-3.1-2.5-4.1s-2.3-1.8-3.7-2.3c-1.4-0.5-2.9-0.8-4.5-0.8c-1.2,0-2.3,0.2-3.6,0.7
		c-1.2,0.5-2.4,1.2-3.4,2.3c-1,1.1-1.9,2.5-2.5,4.2c-0.6,1.7-1,3.9-1,6.5v33h-4.7c-3.5,0-6-0.9-7.6-2.6c-1.6-1.7-2.4-4.1-2.4-7.1V0
		H65c3.5,0,6,0.9,7.7,2.6s2.5,4,2.5,6.7v16.6c0.5-0.9,1.2-1.7,2.1-2.6c0.9-0.9,1.9-1.7,3-2.5c1.1-0.8,2.3-1.4,3.6-1.9
		c1.3-0.5,2.6-0.8,4-0.8c7.6,0,13.4,2.2,17.6,6.5s6.3,10.7,6.3,18.9v34.1H107z M174.4,46.8c0,4.7-0.6,9-1.7,12.9
		c-1.2,3.9-2.8,7.3-5,10.2s-4.9,5.1-8.2,6.7c-3.3,1.6-7,2.4-11.3,2.4c-3.2,0-6.1-0.8-8.7-2.4c-2.6-1.6-4.5-3.7-6-6.2V96H129
		c-1.3,0-2.6-0.2-3.8-0.7c-1.2-0.5-2.3-1.1-3.2-2c-0.9-0.9-1.7-1.9-2.3-3.1c-0.6-1.2-0.9-2.6-0.9-4.2V50.8c0-4.8,0.6-9.2,1.7-13.3
		c1.1-4,2.9-7.5,5.2-10.4c2.4-2.9,5.4-5.1,9.1-6.7c3.7-1.6,8.1-2.4,13.2-2.4c3.9,0,7.4,0.8,10.7,2.4c3.2,1.6,6,3.8,8.4,6.4
		c2.3,2.7,4.2,5.7,5.4,9.2S174.4,43.1,174.4,46.8z M159.5,50.6c0-6.9-1.1-11.9-3.4-15c-2.3-3.1-5.7-4.6-10.4-4.6
		c-4,0-7.1,1.6-9.2,4.7s-3.2,7.2-3.2,12.2c0,5.8,1.3,10.3,3.9,13.5c2.6,3.2,6.1,4.7,10.4,4.7c3.5,0,6.4-1.4,8.6-4.3
		C158.4,59,159.5,55.3,159.5,50.6z M232.6,54.8c0,3.7-0.7,7-2,9.9c-1.4,2.9-3.2,5.3-5.6,7.3c-2.3,2-5,3.5-8.1,4.5
		c-3.1,1-6.3,1.5-9.7,1.5h-8c-13.7,0-20.6-5.9-20.6-17.6V6.8c0.9-0.3,2.1-0.6,3.7-1c1.6-0.4,3.3-0.8,5.1-1.1
		c1.8-0.4,3.7-0.6,5.6-0.9s3.6-0.3,5.1-0.3h9c3.5,0,6.8,0.4,9.7,1.3s5.5,2.2,7.7,3.9c2.2,1.7,3.8,3.7,5,6.1s1.8,5.1,1.8,8.1
		c0,4.1-1,7.5-3.1,10.1c-2.1,2.6-5,4.5-8.6,5.6c1.9,0.5,3.6,1.3,5.2,2.5c1.6,1.2,3,2.5,4.2,3.9c1.2,1.5,2.1,3.1,2.8,4.8
		C232.3,51.6,232.6,53.2,232.6,54.8z M216.5,24.3c0-1.6-0.3-2.9-1-4c-0.7-1.1-1.6-2-2.6-2.6c-1.1-0.6-2.3-1.1-3.7-1.4
		c-1.4-0.3-2.7-0.4-4.1-0.4h-5.5c-0.9,0-2,0.1-3.1,0.3c-1.2,0.2-2.2,0.3-3.2,0.5v16.7h11.3c3.3,0,6.1-0.7,8.5-2.1
		C215.4,29.7,216.5,27.4,216.5,24.3z M217.7,55.2c0-4-1-6.8-3.1-8.3c-2-1.5-5.2-2.3-9.5-2.3h-11.8v15.2c0,1.3,0.6,2.4,1.8,3.3
		c1.2,0.9,2.8,1.3,4.6,1.3h6c4,0,7-0.8,9-2.5S217.7,58,217.7,55.2z M290.9,54.8c0,3.7-0.7,7-2,9.9s-3.2,5.3-5.6,7.3
		c-2.3,2-5,3.5-8.1,4.5c-3.1,1-6.3,1.5-9.7,1.5h-8c-13.7,0-20.6-5.9-20.6-17.6V6.8c0.9-0.3,2.1-0.6,3.7-1c1.6-0.4,3.3-0.8,5.1-1.1
		c1.8-0.4,3.7-0.6,5.6-0.9s3.6-0.3,5.1-0.3h9c3.5,0,6.8,0.4,9.7,1.3s5.5,2.2,7.7,3.9s3.8,3.7,5,6.1s1.8,5.1,1.8,8.1
		c0,4.1-1,7.5-3.1,10.1c-2.1,2.6-5,4.5-8.6,5.6c1.9,0.5,3.6,1.3,5.2,2.5c1.6,1.2,3,2.5,4.2,3.9c1.2,1.5,2.1,3.1,2.8,4.8
		C290.6,51.6,290.9,53.2,290.9,54.8z M274.9,24.3c0-1.6-0.3-2.9-1-4c-0.7-1.1-1.6-2-2.6-2.6c-1.1-0.6-2.3-1.1-3.7-1.4
		s-2.7-0.4-4.1-0.4h-5.5c-0.9,0-2,0.1-3.1,0.3c-1.2,0.2-2.2,0.3-3.2,0.5v16.7h11.3c3.3,0,6.1-0.7,8.5-2.1
		C273.7,29.7,274.9,27.4,274.9,24.3z M276,55.2c0-4-1-6.8-3.1-8.3c-2-1.5-5.2-2.3-9.5-2.3h-11.8v15.2c0,1.3,0.6,2.4,1.8,3.3
		c1.2,0.9,2.8,1.3,4.6,1.3h6c4,0,7-0.8,9-2.5S276,58,276,55.2z"/>
</g>
<rect x="-0.9" y="18.1" class="st1" width="286" height="96"/>
<text transform="matrix(1 0 0 1 43.3295 76.5676)" class="st2 st3 st4">DEV</text>
</svg>
